<svg width="21" height="13" viewBox="0 0 21 13" fill="none" xmlns="http://www.w3.org/2000/svg">
<g id="iconVK 1" clip-path="url(#clip0_28_43)">
<path id="Vector" d="M20.6463 10.7998C20.6223 10.747 20.6 10.7032 20.5792 10.6681C20.236 10.0362 19.58 9.26057 18.6118 8.34096L18.5914 8.3199L18.5812 8.30958L18.5708 8.29899H18.5604C18.1209 7.87078 17.8426 7.58285 17.7261 7.43544C17.5129 7.15464 17.4652 6.8704 17.5817 6.58241C17.664 6.36481 17.9733 5.90528 18.5088 5.20321C18.7904 4.83111 19.0134 4.53291 19.1782 4.30823C20.3663 2.69362 20.8814 1.66186 20.7233 1.21255L20.662 1.10755C20.6208 1.04434 20.5143 0.986514 20.3428 0.933775C20.171 0.881147 19.9513 0.872444 19.6834 0.907517L16.717 0.928464C16.6689 0.911057 16.6002 0.91268 16.5109 0.933775C16.4216 0.95487 16.3769 0.965455 16.3769 0.965455L16.3252 0.991825L16.2843 1.0235C16.25 1.04445 16.2122 1.0813 16.1709 1.13396C16.1299 1.18644 16.0956 1.24803 16.0681 1.31821C15.7452 2.1676 15.378 2.95731 14.9659 3.68732C14.7118 4.12261 14.4784 4.49986 14.2654 4.81928C14.0525 5.13859 13.874 5.37384 13.7298 5.52465C13.5855 5.6756 13.4553 5.79653 13.3383 5.88788C13.2216 5.97927 13.1325 6.01788 13.0706 6.00375C13.0088 5.98964 12.9506 5.97562 12.8954 5.96161C12.7993 5.89839 12.7221 5.81243 12.6638 5.70363C12.6052 5.59483 12.5659 5.4579 12.5453 5.29293C12.5247 5.12785 12.5126 4.98586 12.5092 4.86648C12.5059 4.74726 12.5074 4.5786 12.5144 4.36101C12.5215 4.1433 12.5247 3.996 12.5247 3.91878C12.5247 3.65199 12.5299 3.36244 12.54 3.05007C12.5504 2.73769 12.5588 2.49019 12.5659 2.30786C12.5729 2.12533 12.5761 1.93224 12.5761 1.72866C12.5761 1.52508 12.564 1.36542 12.54 1.24954C12.5164 1.13381 12.4801 1.02148 12.4322 0.912569C12.384 0.803773 12.3135 0.719612 12.221 0.659867C12.1283 0.600194 12.0131 0.55284 11.876 0.517657C11.512 0.43346 11.0485 0.387913 10.4853 0.380832C9.20808 0.366817 8.38742 0.451125 8.02346 0.633645C7.87925 0.710761 7.74876 0.816128 7.63209 0.949412C7.50845 1.1039 7.49121 1.18821 7.58046 1.20208C7.99255 1.26518 8.28426 1.41613 8.45597 1.65478L8.51784 1.78125C8.56596 1.87249 8.61402 2.03402 8.66211 2.26563C8.71014 2.49723 8.74113 2.75344 8.75476 3.03409C8.78903 3.54662 8.78903 3.98535 8.75476 4.35031C8.72037 4.71542 8.68791 4.99966 8.65692 5.20324C8.62593 5.40682 8.5796 5.57178 8.51784 5.69809C8.45597 5.82445 8.4148 5.90167 8.39416 5.9297C8.37356 5.95773 8.35639 5.9754 8.34275 5.98233C8.25349 6.01729 8.16067 6.03511 8.06459 6.03511C7.96837 6.03511 7.8517 5.98591 7.71438 5.88759C7.57711 5.78926 7.43464 5.65421 7.28696 5.4822C7.1393 5.31016 6.97277 5.06973 6.78729 4.7609C6.60196 4.45206 6.40966 4.08706 6.21051 3.6659L6.04574 3.36045C5.94274 3.16395 5.80204 2.87784 5.62349 2.50236C5.44483 2.12674 5.28692 1.76339 5.14964 1.4124C5.09476 1.265 5.01232 1.15277 4.90248 1.07554L4.85092 1.04386C4.81665 1.01583 4.76163 0.986071 4.68615 0.954354C4.61057 0.922674 4.5317 0.899956 4.44922 0.885978L1.62689 0.906926C1.33848 0.906926 1.1428 0.973716 1.03976 1.10711L0.99852 1.17021C0.97792 1.20536 0.967529 1.26149 0.967529 1.33876C0.967529 1.41598 0.98813 1.51077 1.02937 1.62299C1.44138 2.61286 1.88943 3.5675 2.37352 4.48706C2.85761 5.40663 3.27828 6.14737 3.63527 6.70861C3.99233 7.27026 4.35629 7.80034 4.72713 8.29858C5.09798 8.79702 5.34345 9.11644 5.46356 9.25676C5.5838 9.39736 5.67825 9.50246 5.74691 9.57265L6.00447 9.82531C6.16928 9.99382 6.41128 10.1956 6.73061 10.4307C7.05001 10.666 7.40361 10.8976 7.79159 11.1259C8.17964 11.3539 8.63109 11.5399 9.14617 11.6838C9.66118 11.8278 10.1624 11.8856 10.65 11.8577H11.8347C12.0748 11.8365 12.2568 11.7593 12.3806 11.626L12.4215 11.5732C12.4491 11.5313 12.475 11.4663 12.4987 11.3786C12.5228 11.2909 12.5348 11.1943 12.5348 11.0891C12.5278 10.7873 12.5502 10.5153 12.6017 10.2731C12.653 10.0311 12.7115 9.84854 12.7769 9.72563C12.8423 9.60282 12.9161 9.49918 12.9983 9.41516C13.0806 9.33097 13.1393 9.27997 13.1737 9.26241C13.2079 9.24474 13.2352 9.23276 13.2558 9.22557C13.4206 9.16944 13.6146 9.2238 13.8379 9.3889C14.0612 9.55388 14.2706 9.75756 14.4664 9.99964C14.6621 10.2419 14.8973 10.5138 15.1719 10.8156C15.4467 11.1175 15.687 11.3419 15.8929 11.4895L16.0988 11.6159C16.2364 11.7001 16.415 11.7774 16.6348 11.8476C16.8542 11.9178 17.0463 11.9353 17.2113 11.9003L19.8482 11.8582C20.109 11.8582 20.3119 11.814 20.4559 11.7264C20.6002 11.6387 20.6858 11.542 20.7134 11.4369C20.741 11.3317 20.7425 11.2123 20.7187 11.0787C20.6942 10.9455 20.6702 10.8524 20.6463 10.7998Z" fill="white"/>
</g>
<defs>
<clipPath id="clip0_28_43">
<rect width="19.7836" height="12.1341" fill="white" transform="translate(0.967529 0.379333)"/>
</clipPath>
</defs>
</svg>
