<svg width="20" height="16" viewBox="0 0 20 16" fill="none" xmlns="http://www.w3.org/2000/svg">
<g id="iconYouTube 1" clip-path="url(#clip0_28_47)">
<path id="Vector" d="M18.5254 1.6006C17.847 0.717341 16.5944 0.357056 14.2023 0.357056H5.51899C3.07214 0.357056 1.79836 0.740581 1.12249 1.68093C0.463531 2.59778 0.463531 3.94868 0.463531 5.81837V9.38198C0.463531 13.0041 1.24538 14.8432 5.51899 14.8432H14.2023C16.2768 14.8432 17.4263 14.5254 18.1699 13.7458C18.9326 12.9465 19.2579 11.6414 19.2579 9.38198V5.81837C19.2579 3.84663 19.207 2.48776 18.5254 1.6006ZM12.5296 8.09217L8.58654 10.3492C8.49839 10.3996 8.40199 10.4247 8.30571 10.4247C8.1967 10.4247 8.08794 10.3925 7.99161 10.3286C7.81021 10.2083 7.69944 9.99292 7.69944 9.76065V5.26114C7.69944 5.02927 7.8099 4.81414 7.99094 4.69369C8.17203 4.57324 8.39726 4.56501 8.58514 4.67191L12.5283 6.91436C12.7289 7.02844 12.8548 7.25526 12.8551 7.50273C12.8554 7.75041 12.73 7.97755 12.5296 8.09217Z" fill="white"/>
</g>
<defs>
<clipPath id="clip0_28_47">
<rect width="18.7944" height="15.1676" fill="white" transform="translate(0.463531 0.357056)"/>
</clipPath>
</defs>
</svg>
