<svg width="19" height="16" viewBox="0 0 19 16" fill="none" xmlns="http://www.w3.org/2000/svg">
<g id="iconTwitter 1" clip-path="url(#clip0_28_45)">
<path id="Vector" d="M18.7389 2.09009C18.0384 2.39808 17.3378 2.59043 16.6376 2.66768C17.4284 2.18264 17.9633 1.4974 18.2421 0.612008C17.5186 1.05078 16.7468 1.35097 15.9259 1.51272C15.2027 0.727414 14.3142 0.334595 13.2595 0.334595C12.2503 0.334595 11.3899 0.69833 10.6778 1.42596C9.96622 2.15355 9.61035 3.03312 9.61035 4.06478C9.61035 4.3419 9.64044 4.62688 9.70074 4.91943C8.20939 4.84244 6.81039 4.45942 5.50353 3.77034C4.19673 3.08117 3.08767 2.16302 2.17636 1.01587C1.84495 1.59318 1.67919 2.22078 1.67919 2.8983C1.67919 3.53734 1.82603 4.13026 2.11993 4.67692C2.41363 5.2235 2.80914 5.66615 3.30626 6.00496C2.71868 5.98183 2.16887 5.82395 1.6568 5.53137V5.57756C1.6568 6.47844 1.93359 7.26939 2.48711 7.95098C3.04071 8.6325 3.73933 9.06148 4.58283 9.23865C4.26646 9.32323 3.94629 9.36559 3.62247 9.36559C3.41156 9.36559 3.18181 9.34637 2.93331 9.30815C3.16678 10.0548 3.59612 10.6686 4.22118 11.1501C4.84637 11.6312 5.55437 11.8793 6.34524 11.8951C5.01969 12.9574 3.50958 13.4886 1.81492 13.4886C1.49099 13.4886 1.19733 13.4735 0.93367 13.4426C2.62838 14.5588 4.49625 15.117 6.5374 15.117C7.83287 15.117 9.04928 14.9073 10.1862 14.4876C11.3238 14.0682 12.2952 13.5061 13.1012 12.8014C13.907 12.097 14.6019 11.2866 15.1856 10.3704C15.7692 9.45418 16.2041 8.49763 16.4906 7.5006C16.7766 6.50336 16.9198 5.50459 16.9198 4.50351C16.9198 4.28791 16.916 4.1263 16.9084 4.01846C17.6242 3.48746 18.2342 2.84445 18.7389 2.09009Z" fill="white"/>
</g>
<defs>
<clipPath id="clip0_28_45">
<rect width="18.7944" height="15.1676" fill="white" transform="translate(0.210144 0.334595)"/>
</clipPath>
</defs>
</svg>
